<?xml version="1.0" standalone="no"?>
<!DOCTYPE svg PUBLIC "-//W3C//DTD SVG 20010904//EN"
 "http://www.w3.org/TR/2001/REC-SVG-20010904/DTD/svg10.dtd">
<svg version="1.0" xmlns="http://www.w3.org/2000/svg"
 width="225.000000pt" height="225.000000pt" viewBox="0 0 225.000000 225.000000"
 preserveAspectRatio="xMidYMid meet">
<metadata>
Created by potrace 1.16, written by Peter Selinger 2001-2019
</metadata>
<g transform="translate(0.000000,225.000000) scale(0.100000,-0.100000)"
fill="#000000" stroke="none">
<path d="M102 2147 c-50 -51 -92 -97 -92 -102 0 -6 205 -215 455 -465 l455
-455 -455 -455 c-250 -250 -455 -460 -455 -465 0 -6 44 -54 98 -108 l97 -97
460 460 460 460 460 -460 460 -460 103 103 102 102 -460 460 -460 460 460 460
460 460 -98 98 c-53 53 -102 97 -107 97 -6 0 -215 -205 -465 -455 l-455 -455
-455 455 c-250 250 -460 455 -465 455 -6 0 -52 -42 -103 -93z"/>
</g>
</svg>
