<?xml version="1.0" standalone="no"?>
<!DOCTYPE svg PUBLIC "-//W3C//DTD SVG 20010904//EN"
 "http://www.w3.org/TR/2001/REC-SVG-20010904/DTD/svg10.dtd">
<svg version="1.0" xmlns="http://www.w3.org/2000/svg"
 width="105.000000pt" height="21.000000pt" viewBox="0 0 105.000000 21.000000"
 preserveAspectRatio="xMidYMid meet">

<g transform="translate(0.000000,21.000000) scale(0.100000,-0.100000)"
fill="#000000" stroke="none">
<path d="M3 105 l0 -105 524 0 523 0 0 105 0 105 -524 0 -523 0 0 -105z m449
0 c2 -34 -1 -54 -7 -52 -13 5 -19 107 -6 107 5 0 11 -25 13 -55z m450 0 c2
-34 -1 -54 -7 -52 -13 5 -19 107 -6 107 5 0 11 -25 13 -55z m48 45 c-13 -9
-13 -11 0 -20 10 -6 11 -10 3 -10 -8 0 -13 -14 -13 -35 0 -47 -18 -45 -22 3
-3 42 10 72 32 72 13 0 13 -1 0 -10z m-752 -62 c2 -22 -1 -38 -7 -38 -6 0 -11
16 -11 36 0 21 -4 33 -10 29 -5 -3 -10 -19 -10 -36 0 -16 -4 -29 -10 -29 -5 0
-10 16 -10 35 0 19 -4 35 -10 35 -5 0 -10 -16 -10 -35 0 -19 -4 -35 -10 -35
-5 0 -10 18 -10 40 l0 40 48 -2 c47 -3 47 -3 50 -40z m72 38 c0 -2 3 -11 6
-20 5 -12 0 -16 -20 -16 -19 0 -24 -4 -19 -16 3 -8 12 -13 19 -10 8 3 14 1 14
-5 0 -6 -10 -9 -22 -7 -40 5 -37 78 2 78 11 0 20 -2 20 -4z m62 -8 c-7 -7 -12
-25 -12 -40 0 -15 -4 -28 -10 -28 -5 0 -10 18 -10 40 0 35 3 40 22 40 17 0 19
-3 10 -12z m68 8 c0 -2 3 -11 6 -20 5 -12 0 -16 -20 -16 -19 0 -24 -4 -19 -16
3 -8 12 -13 19 -10 8 3 14 1 14 -5 0 -6 -10 -9 -22 -7 -40 5 -37 78 2 78 11 0
20 -2 20 -4z m86 -28 l7 -33 10 33 c6 17 14 32 18 32 5 0 0 -24 -11 -52 -11
-29 -20 -54 -20 -55 0 -2 -5 -3 -12 -3 -9 0 -9 3 -1 11 7 7 7 23 -3 55 -7 24
-9 44 -4 44 4 0 12 -15 16 -32z m152 -10 c2 -22 -1 -38 -7 -38 -6 0 -11 16
-11 36 0 21 -4 33 -10 29 -5 -3 -10 -19 -10 -36 0 -16 -4 -29 -10 -29 -5 0
-10 16 -10 35 0 19 -4 35 -10 35 -5 0 -10 -16 -10 -35 0 -19 -4 -35 -10 -35
-5 0 -10 18 -10 40 l0 40 48 -2 c47 -3 47 -3 50 -40z m38 10 l7 -33 10 33 c6
17 14 32 18 32 5 0 0 -24 -11 -52 -11 -29 -20 -54 -20 -55 0 -2 -5 -3 -12 -3
-9 0 -9 3 -1 11 7 7 7 23 -3 55 -7 24 -9 44 -4 44 4 0 12 -15 16 -32z m82 25
c-24 -6 -23 -20 3 -28 26 -9 21 -39 -9 -43 -12 -2 -22 1 -22 7 0 6 7 8 15 5
20 -8 19 13 -2 24 -20 12 -10 42 14 41 17 -1 17 -2 1 -6z m92 3 c0 -2 3 -11 6
-20 5 -12 0 -16 -20 -16 -19 0 -24 -4 -19 -16 3 -8 12 -13 19 -10 8 3 14 1 14
-5 0 -6 -10 -9 -22 -7 -40 5 -37 78 2 78 11 0 20 -2 20 -4z"/>
<path d="M235 110 c-3 -5 1 -10 9 -10 9 0 16 5 16 10 0 6 -4 10 -9 10 -6 0
-13 -4 -16 -10z"/>
<path d="M365 110 c-3 -5 1 -10 9 -10 9 0 16 5 16 10 0 6 -4 10 -9 10 -6 0
-13 -4 -16 -10z"/>
<path d="M815 110 c-3 -5 1 -10 9 -10 9 0 16 5 16 10 0 6 -4 10 -9 10 -6 0
-13 -4 -16 -10z"/>
</g>
</svg>
